<?xml version="1.0" encoding="UTF-8"?>
<svg id="Layer_1" data-name="Layer 1" xmlns="http://www.w3.org/2000/svg" viewBox="0 0 2000 1422">
  <defs>
    <style>
      .cls-1 {
        font-family: AcuminVF, 'Acumin VF';
        font-size: 66px;
        font-variation-settings: 'wght' 194, 'wdth' 100, 'slnt' 0;
      }

      .cls-1, .cls-2 {
        fill: #17404e;
      }

      .cls-2 {
        font-family: BelyDisplay-Regular, 'Bely Display';
        font-size: 93px;
      }
    </style>
  </defs>
  <text class="cls-2" transform="translate(758.26 298.59) rotate(-27.11)"><tspan x="0" y="0">N</tspan></text>
  <text class="cls-2" transform="translate(820.02 267.47) rotate(-21.22)"><tspan x="0" y="0">e</tspan></text>
  <text class="cls-2" transform="translate(860.42 251.26) rotate(-15.85)"><tspan x="0" y="0">d</tspan></text>
  <text class="cls-2" transform="translate(917.53 235.23) rotate(-10.08)"><tspan x="0" y="0">a</tspan></text>
  <text class="cls-2" transform="translate(966.2 226.51) rotate(-4.85)"><tspan x="0" y="0">a</tspan></text>
  <text class="cls-2" transform="translate(1015.85 222.72) rotate(-1.07)"><tspan x="0" y="0">.</tspan></text>
  <text class="cls-2" transform="translate(1037.92 221.09) rotate(3.95)"><tspan x="0" y="0">D</tspan></text>
  <text class="cls-2" transform="translate(1112.14 226.96) rotate(10.13)"><tspan x="0" y="0">r</tspan></text>
  <text class="cls-2" transform="translate(1155 234.51) rotate(14.85)"><tspan x="0" y="0">e</tspan></text>
  <text class="cls-2" transform="translate(1199 246.02) rotate(19.9)"><tspan x="0" y="0">a</tspan></text>
  <text class="cls-2" transform="translate(1245.53 261.43) rotate(27.15)"><tspan x="0" y="0">m</tspan></text>
  <text class="cls-2" transform="translate(1323.1 302.68) rotate(33.91)"><tspan x="0" y="0">s</tspan></text>
  <text class="cls-2" transform="translate(1357 325.81) rotate(37.1)"><tspan x="0" y="0"> </tspan></text>
  <text class="cls-2" transform="translate(1372.76 336.58) rotate(41.47)"><tspan x="0" y="0">C</tspan></text>
  <text class="cls-2" transform="translate(1419.17 377.6) rotate(47.6)"><tspan x="0" y="0">o</tspan></text>
  <text class="cls-2" transform="translate(1458.16 418.58) rotate(55.16)"><tspan x="0" y="0">m</tspan></text>
  <text class="cls-2" transform="translate(1506.87 490.51) rotate(62.07)"><tspan x="0" y="0">e</tspan></text>
  <text class="cls-2" transform="translate(1528.04 531.23) rotate(65.52)"><tspan x="0" y="0"> </tspan></text>
  <text class="cls-2" transform="translate(1536.93 548.09) rotate(70.25)"><tspan x="0" y="0">T</tspan></text>
  <text class="cls-2" transform="translate(1559.95 614.02) rotate(76.26)"><tspan x="0" y="0">r</tspan></text>
  <text class="cls-2" transform="translate(1570.65 656.04) rotate(81.63)"><tspan x="0" y="0">u</tspan></text>
  <text class="cls-2" transform="translate(1578.79 712.84) rotate(87.02)"><tspan x="0" y="0">e</tspan></text>
  <text class="cls-2" transform="translate(1580.79 758.62) rotate(90.33)"><tspan x="0" y="0">.</tspan></text>
  <text class="cls-2" transform="translate(1580.6 781.47) rotate(92.78)"><tspan x="0" y="0"> </tspan></text>
  <text class="cls-2" transform="translate(1580.47 800.63) rotate(96.94)"><tspan x="0" y="0">F</tspan></text>
  <text class="cls-2" transform="translate(1573.48 856.8) rotate(102.03)"><tspan x="0" y="0">r</tspan></text>
  <text class="cls-2" transform="translate(1564.5 899.39) rotate(106.76)"><tspan x="0" y="0">e</tspan></text>
  <text class="cls-2" transform="translate(1552.02 941.29) rotate(111.41)"><tspan x="0" y="0">e</tspan></text>
  <text class="cls-2" transform="translate(1534.92 983.89) rotate(114.88)"><tspan x="0" y="0"> </tspan></text>
  <text class="cls-2" transform="translate(1528.04 1001.6) rotate(119.75)"><tspan x="0" y="0">Y</tspan></text>
  <text class="cls-2" transform="translate(1499.01 1053.07) rotate(125.14)"><tspan x="0" y="0">o</tspan></text>
  <text class="cls-2" transform="translate(1466.37 1099.63) rotate(131.16)"><tspan x="0" y="0">u</tspan></text>
  <text class="cls-2" transform="translate(1428.1 1143) rotate(136.47)"><tspan x="0" y="0">r</tspan></text>
  <text class="cls-2" transform="translate(1396.05 1172.99) rotate(139.79)"><tspan x="0" y="0"> </tspan></text>
  <text class="cls-2" transform="translate(1383.23 1186.79) rotate(145.97)"><tspan x="0" y="0">M</tspan></text>
  <text class="cls-2" transform="translate(1300.23 1240.51) rotate(152.74)"><tspan x="0" y="0">i</tspan></text>
  <text class="cls-2" transform="translate(1273.83 1254.87) rotate(157.5)"><tspan x="0" y="0">n</tspan></text>
  <text class="cls-2" transform="translate(1219.83 1277.39) rotate(163.7)"><tspan x="0" y="0">d</tspan></text>
  <text class="cls-2" transform="translate(1162.38 1293.5) rotate(168.06)"><tspan x="0" y="0">.</tspan></text>
  <text class="cls-2" transform="translate(1140.95 1299.14) rotate(172.95)"><tspan x="0" y="0">B</tspan></text>
  <text class="cls-2" transform="translate(1071.41 1307.16) rotate(179)"><tspan x="0" y="0">e</tspan></text>
  <text class="cls-2" transform="translate(1025.51 1307.59) rotate(-177.62)"><tspan x="0" y="0"> </tspan></text>
  <text class="cls-2" transform="translate(1006.36 1307.71) rotate(-173.27)"><tspan x="0" y="0">C</tspan></text>
  <text class="cls-2" transform="translate(943.85 1299.94) rotate(-167.7)"><tspan x="0" y="0">r</tspan></text>
  <text class="cls-2" transform="translate(901.31 1290.77) rotate(-162.97)"><tspan x="0" y="0">e</tspan></text>
  <text class="cls-2" transform="translate(857.79 1277.6) rotate(-157.92)"><tspan x="0" y="0">a</tspan></text>
  <text class="cls-2" transform="translate(813.74 1259.65) rotate(-153.41)"><tspan x="0" y="0">t</tspan></text>
  <text class="cls-2" transform="translate(778.29 1241.78) rotate(-149.7)"><tspan x="0" y="0">i</tspan></text>
  <text class="cls-2" transform="translate(753.17 1227.73) rotate(-145.4)"><tspan x="0" y="0">v</tspan></text>
  <text class="cls-2" transform="translate(713.58 1200.58) rotate(-140.8)"><tspan x="0" y="0">e</tspan></text>
  <text class="cls-2" transform="translate(678.23 1171.26) rotate(-137.37)"><tspan x="0" y="0"> </tspan></text>
  <text class="cls-1" transform="translate(588.82 459.77) rotate(121.67)"><tspan x="0" y="0">D</tspan></text>
  <text class="cls-1" transform="translate(563.33 501.77) rotate(117.23)"><tspan x="0" y="0">e</tspan></text>
  <text class="cls-1" transform="translate(547.13 533.55) rotate(113.68)"><tspan x="0" y="0">s</tspan></text>
  <text class="cls-1" transform="translate(535.05 561.56) rotate(111.28)"><tspan x="0" y="0">i</tspan></text>
  <text class="cls-1" transform="translate(529.21 575.92) rotate(108.5)"><tspan x="0" y="0">g</tspan></text>
  <text class="cls-1" transform="translate(517.2 612) rotate(104.5)"><tspan x="0" y="0">n</tspan></text>
  <text class="cls-1" transform="translate(508.33 647.44) rotate(101.97)"><tspan x="0" y="0">.</tspan></text>
  <text class="cls-1" transform="translate(505.68 657.88) rotate(99.1)"><tspan x="0" y="0">C</tspan></text>
  <text class="cls-1" transform="translate(498.89 702.77) rotate(95.51)"><tspan x="0" y="0">r</tspan></text>
  <text class="cls-1" transform="translate(496.62 724.99) rotate(92.52)"><tspan x="0" y="0">e</tspan></text>
  <text class="cls-1" transform="translate(495.13 759.95) rotate(88.78)"><tspan x="0" y="0">a</tspan></text>
  <text class="cls-1" transform="translate(496.08 794.57) rotate(85.87)"><tspan x="0" y="0">t</tspan></text>
  <text class="cls-1" transform="translate(497.38 814.62) rotate(82.98)"><tspan x="0" y="0">e</tspan></text>
  <text class="cls-1" transform="translate(501.84 848.7) rotate(80.49)"><tspan x="0" y="0">.</tspan></text>
  <text class="cls-1" transform="translate(503.62 861.18) rotate(77.69)"><tspan x="0" y="0">S</tspan></text>
  <text class="cls-1" transform="translate(512.52 901.27) rotate(73.56)"><tspan x="0" y="0">o</tspan></text>
  <text class="cls-1" transform="translate(523.06 935.98) rotate(70.84)"><tspan x="0" y="0">l</tspan></text>
  <text class="cls-1" transform="translate(528.07 950.83) rotate(68.36)"><tspan x="0" y="0">v</tspan></text>
  <text class="cls-1" transform="translate(539.75 980.27) rotate(64.93)"><tspan x="0" y="0">e</tspan></text>
</svg>