<?xml version="1.0" encoding="UTF-8"?>
<svg id="Layer_1" data-name="Layer 1" xmlns="http://www.w3.org/2000/svg" viewBox="0 0 877.27 768">
  <defs>
    <style>
      .cls-1, .cls-2, .cls-3 {
        fill: #f9df66;
      }

      .cls-4 {
        fill: #c48861;
      }

      .cls-5, .cls-6 {
        fill: #5fcbf3;
      }

      .cls-7 {
        stroke-width: 2px;
      }

      .cls-7, .cls-8, .cls-2, .cls-9, .cls-10, .cls-11, .cls-12, .cls-6, .cls-3, .cls-13 {
        stroke-miterlimit: 10;
      }

      .cls-7, .cls-2, .cls-10, .cls-11, .cls-3 {
        stroke: #0a1217;
      }

      .cls-7, .cls-9, .cls-10 {
        fill: #6acff6;
      }

      .cls-8 {
        fill: #344525;
        stroke: #020202;
      }

      .cls-8, .cls-2 {
        stroke-width: .5px;
      }

      .cls-9, .cls-12, .cls-6 {
        stroke: #000;
      }

      .cls-11 {
        fill: #b42f27;
      }

      .cls-12 {
        fill: #0a1217;
      }

      .cls-13 {
        fill: #d9846b;
        stroke: #231f20;
        stroke-width: .75px;
      }
    </style>
  </defs>
  <g>
    <g>
      <path class="cls-9" d="m252.59,405.5c92.4-163.51,467.59-269.66,496.84-243.19,58.74,53.15-218.52,388.82-313.75,412.23l-43.06,12.84c-21.94,7.39-42.46.56-54.43-17.08-31.9-46.99-85.73-134.14-85.73-134.14-9.63-12.58-6.93-18.15.13-30.65Z"/>
      <path class="cls-12" d="m741.14,157.18c-6.04-5.29-84.31,11.2-78.64,13.8,5.67,2.6,63.07,93.73,68.89,89.33,5.82-4.4,33.68-79.01,30.29-81.94s-20.55-21.19-20.55-21.19Z"/>
    </g>
    <g>
      <path class="cls-12" d="m523.02,523.78c4.43-5.59,35.98,66.06,36.94,78.08.97,12.01-162.84,142.95-174.76,131.34-11.91-11.61,51.67-77.11,42.83-90.46-8.85-13.35-20.28-54.86-20.28-54.86,15.55,1.63,105.24-51.44,115.27-64.1Z"/>
      <path class="cls-12" d="m348.03,308.56c6.7-2.45-51.44-54.89-62.54-59.58-11.1-4.69-186.83,109.76-179.54,124.72s89.43-24.87,99.33-12.28c9.9,12.59,45.72,36.47,45.72,36.47,3.33-15.28,81.86-83.78,97.03-89.33Z"/>
    </g>
  </g>
  <path class="cls-11" d="m261.77,588.02c2.6,3.12-40.4,71.31-40.87,69.98-3.45-9.6-3.43-31.09-3.43-31.09,0,0-76.56,50.61-72.42,43.53,8.91-15.27,32.74-39.51,32.74-39.51,0,0-153.95,53.12-148.26,40.52,10.98-24.33,76.31-87.93,76.31-87.93l-48.57,2.17c7.13-16.05,70.95-49.09,70.95-49.09l-30.45-9.82c7.51-4.13,99.85-29.56,107.9-6.03,11.72,34.26,48.97,58.73,56.1,67.27Z"/>
  <g>
    <path class="cls-13" d="m248.73,435.07c-8.71,7.53-24.02,28.48-24.02,28.48l79.72,124.37,35.15-15.54s-92.04-138.19-90.85-137.31Z"/>
    <path class="cls-8" d="m239,489.63c-4.99-1.36-.87-1.17-6.89-1.08-8.45.12-22.14,5.06-33.97,9.3-12.68,4.54,45.11,107.22,66.6,92.67,24.4-16.53,25.76-25.14,21.06-32.78-4.68-7.61-41.35-66.62-46.8-68.1Z"/>
  </g>
  <path class="cls-4" d="m245.88,594.6c1.51,2.11-18.48,38.77-18.72,37.9-1.74-6.28-.64-22.87-.64-22.87,0,0-52.65,37.27-48.89,33.62,9.52-9.25,30.77-38.01,28.04-38.06,0,0-160.87,60.06-155.89,52.76,9.02-13.2,81.65-85.72,81.65-85.72l-45.17,1.62c5.31-9.88,65.85-37.58,65.85-37.58l-23.37-10.17c4.98-2.27,61.9-10.7,65.91,4.68,5.83,22.38,47.11,58.04,51.24,63.82Z"/>
  <path class="cls-5" d="m242.85,593.33c3.8,1-11.27,31.28-12.57,27.63-2.06-5.79-.36-18.59-.36-18.59,0,0-35.32,26.82-33.71,23.29,2.91-6.33,14.9-24.32,12.88-24.48,0,0-141.44,45.94-136.31,41.9,9.67-7.62,63.29-72.56,63.29-72.56l-35.83-2.74c4.36-7.06,55.79-31.88,55.79-31.88l-17.09-9.24c3.78-1.45,51.47-5.15,53.74,6.38,3.3,16.78,47.38,55.85,50.17,60.3Z"/>
  <path class="cls-1" d="m202.8,524.35c.93,7.15,34.32,56.47,39.7,57.06,2.12.23-45.36,10.78-61.43-9.01-7.62-9.39,20.96-53.97,21.73-48.04Z"/>
  <path class="cls-2" d="m320.2,338.93c18.11,9.65,165.35,192.34,148.67,217.63-5.53,8.38-86.62,38.79-112.18,27.53-20.25-8.92-105.25-136.42-106.1-162.31-.85-25.91,54.78-90.09,69.61-82.86Z"/>
  <g>
    <rect class="cls-10" x="751.93" y="139.85" width="20.97" height="40.99" rx="1.25" ry="1.25" transform="translate(433.7 -546.01) rotate(53.17)"/>
    <circle class="cls-7" cx="800.21" cy="132.03" r="23.36"/>
  </g>
  <circle class="cls-3" cx="525.5" cy="337.79" r="83.82"/>
  <circle class="cls-10" cx="525.5" cy="337.79" r="66.23"/>
  <path class="cls-6" d="m408.93,384.56c12.34-1.9,43.15,29.18,37.79,46.54-3.16,10.22-199.11,133.2-212.28,114.95-11.29-15.66,147.66-157.35,174.49-161.49Z"/>
</svg>