<?xml version="1.0" encoding="UTF-8"?>
<svg id="Layer_1" data-name="Layer 1" xmlns="http://www.w3.org/2000/svg" viewBox="0 0 726.92 640.12">
  <defs>
    <style>
      .cls-1 {
        fill: #6acff6;
      }

      .cls-1, .cls-2 {
        stroke: #000;
        stroke-miterlimit: 10;
      }

      .cls-2 {
        fill: #0a1217;
      }
    </style>
  </defs>
  <g>
    <path class="cls-1" d="m162.95,276.33C265.16,95.46,680.19-21.96,712.54,7.32c64.97,58.8-241.72,430.09-347.06,455.99l-47.63,14.21c-24.27,8.17-46.96.61-60.21-18.9-35.29-51.98-94.83-148.38-94.83-148.38-10.65-13.91-7.67-20.07.15-33.91Z"/>
    <path class="cls-2" d="m703.37,1.65c-6.68-5.86-93.26,12.39-86.99,15.27,6.28,2.88,69.77,103.68,76.21,98.82,6.44-4.87,37.25-87.4,33.51-90.64-3.74-3.25-22.73-23.44-22.73-23.44Z"/>
  </g>
  <g>
    <path class="cls-2" d="m462.09,407.17c4.9-6.19,39.79,73.07,40.87,86.36,1.07,13.29-180.13,158.13-193.31,145.28-13.17-12.84,57.16-85.3,47.37-100.06-9.79-14.76-22.44-60.68-22.44-60.68,17.2,1.81,116.41-56.9,127.51-70.91Z"/>
    <path class="cls-2" d="m268.53,169.09c7.41-2.71-56.9-60.71-69.18-65.9C187.06,98.01-7.32,224.61.74,241.15c8.06,16.54,98.93-27.51,109.87-13.58,10.95,13.92,50.57,40.35,50.57,40.35,3.68-16.9,90.55-92.68,107.33-98.82Z"/>
  </g>
</svg>