<?xml version="1.0" encoding="UTF-8"?>
<svg id="Layer_1" data-name="Layer 1" xmlns="http://www.w3.org/2000/svg" viewBox="0 0 715.18 715.18">
  <defs>
    <style>
      .cls-1 {
        fill: #6acff6;
      }

      .cls-1, .cls-2 {
        stroke: #0a1217;
        stroke-miterlimit: 10;
      }

      .cls-2 {
        fill: #f9df66;
      }
    </style>
  </defs>
  <circle class="cls-2" cx="357.59" cy="357.59" r="357.06"/>
  <circle class="cls-1" cx="357.59" cy="357.59" r="282.14"/>
  <path d="m536.49,374.42c-.52,3-.9,6.04-1.6,9-5.6,23.73-26.24,41.26-50.49,42.98-11.88.85-22.93-1.78-33.17-7.86-.32-.19-.66-.35-1.09-.58-.56,2.87-.96,5.69-1.67,8.42-8.95,34.68-30.52,57.5-64.59,68.41-8.02,2.57-16.34,3.61-24.77,3.61-17.31,0-34.61.13-51.92-.03-43.85-.4-81.78-32.24-89.7-75.36-1.02-5.57-1.56-11.31-1.59-16.97-.15-32.54-.08-65.07-.07-97.61,0-9.11,6.78-15.56,15.91-15.14,16.85.78,33.69,1.8,50.54,2.34,16.86.54,33.73.6,50.59.86.32,0,.64-.04,1.16-.07-.65-1.39-1.24-2.66-1.83-3.93-4.15-8.97-7.64-18.16-9.05-28.02-2.88-20.14,3.99-36.07,20.9-47.41,4.61-3.1,9.73-5.44,14.57-8.21.65-.37,1.29-1.15,1.49-1.87,2.44-8.53.17-16.1-4.92-23.03-4.08-5.55-9.38-9.78-14.92-13.75-6.76-4.85-13.7-9.46-20.26-14.57-7.48-5.82-13.19-13.11-16-22.36-1.65-5.41-1.97-10.86-.19-16.32.11-.35.27-.69.54-1.41.1,2.24.05,4.12.3,5.96,1.2,8.81,5.95,15.63,12.35,21.45,5.77,5.24,12.6,8.87,19.37,12.59,7.53,4.14,15.1,8.19,21.49,14.1,6.37,5.88,11.87,12.36,14.29,20.86.89,3.11.98,6.45,1.41,9.69.07.52,0,1.06,0,1.85,1.23-.56,2.3-1.05,3.37-1.55,6.47-3.05,12.58-6.65,17.83-11.57,11.54-10.81,13.29-24.25,4.88-37.67-4.9-7.83-11.75-13.61-19.83-17.78-7.43-3.83-15.17-7.04-22.78-10.53-.49-.22-.98-.44-1.38-1.04,4.62.91,9.27,1.7,13.85,2.76,10.05,2.31,19.67,5.73,28.06,11.91,9.84,7.25,16.43,16.65,18.07,28.99,1.41,10.61-1.97,19.87-8.6,28.06-6.23,7.69-14.24,13.07-23.06,17.31-4.09,1.96-8.33,3.61-12.48,5.46-.57.25-1.23.81-1.4,1.36-4.02,13.64-4.14,27.29.96,40.64,4.95,12.93,13.56,23.16,24.84,31.13,8.17,5.78,8.2,5.69,19.33,4.91,6.66-.47,13.33-.84,20.01-1.16,8.6-.41,15.41,6.09,15.5,14.72.05,4.6,0,9.2,0,14.1.62-.32,1.08-.54,1.52-.78,33.45-18.87,75.09-.02,83.04,37.62.48,2.29.77,4.62,1.15,6.94,0,2.85,0,5.7,0,8.55Zm-85.71-4.11c0,7.78-.02,15.55.03,23.33,0,.74.3,1.65.79,2.17,9.5,10.23,21.25,14.57,34.99,12.26,21-3.54,34.88-22.82,31.43-43.83-2.55-15.53-11.71-26.13-26.77-30.65-15.17-4.55-28.52-.56-39.5,10.94-.56.59-.92,1.62-.93,2.45-.07,7.78-.04,15.55-.04,23.33Zm-48.31-75.34c-15.56-4.58-27.85-13.46-36.6-27.05-8.76-13.62-11.68-28.58-9.64-44.83-8.18,4.15-15.32,9.13-20.26,16.78-4.93,7.65-6.41,16.17-6.25,25.1.18,10.09,2.47,19.85,4.49,29.65.34,1.63.99,1.93,2.49,1.89,21.07-.49,42.14-.93,63.21-1.39.85-.02,1.7-.11,2.55-.17Z"/>
</svg>