<?xml version="1.0" encoding="UTF-8"?>
<svg id="Layer_1" data-name="Layer 1" xmlns="http://www.w3.org/2000/svg" viewBox="0 0 845.04 590.88">
  <defs>
    <style>
      .cls-1 {
        fill: #f9df66;
      }

      .cls-2 {
        fill: #c48861;
      }

      .cls-3 {
        fill: #5fcbf3;
      }

      .cls-4 {
        fill: #b42f27;
        stroke: #0a1217;
        stroke-miterlimit: 10;
      }
    </style>
  </defs>
  <path class="cls-4" d="m844.13,280.49c9.46,11.33-146.65,258.86-148.38,254.05-12.52-34.86-12.46-112.85-12.46-112.85,0,0-277.9,183.73-262.9,158.01,32.35-55.43,118.86-143.43,118.86-143.43,0,0-558.84,192.84-538.2,147.08,39.85-88.33,277.03-319.21,277.03-319.21l-176.33,7.89c25.9-58.27,257.57-178.21,257.57-178.21l-110.52-35.64c27.25-14.98,362.47-107.3,391.69-21.88,42.54,124.36,177.77,213.19,203.64,244.19Z"/>
  <path class="cls-2" d="m786.47,304.38c5.48,7.67-67.08,140.74-67.95,137.6-6.31-22.81-2.33-83.03-2.33-83.03,0,0-191.12,135.28-177.48,122.03,34.55-33.57,111.7-137.99,101.77-138.16,0,0-583.98,218.02-565.89,191.54,32.75-47.93,296.41-311.17,296.41-311.17l-163.97,5.88c19.28-35.88,239.03-136.42,239.03-136.42l-84.85-36.93c18.07-8.24,224.71-38.83,239.25,16.97,21.16,81.25,171.01,210.71,186.01,231.69Z"/>
  <path class="cls-3" d="m775.44,299.76c13.78,3.62-40.91,113.56-45.62,100.32-7.47-21.03-1.3-67.49-1.3-67.49,0,0-128.23,97.34-122.36,84.56,10.55-22.98,54.09-88.29,46.77-88.87,0,0-513.45,166.77-494.83,152.09,35.11-27.67,229.75-263.4,229.75-263.4l-130.06-9.96c15.84-25.61,202.51-115.74,202.51-115.74l-62.04-33.55c13.71-5.27,186.86-18.69,195.07,23.15,11.96,60.92,171.99,202.73,182.12,218.89Z"/>
  <path class="cls-1" d="m630.06,49.36c3.38,25.94,124.57,205,144.11,207.12,7.69.83-164.66,39.12-223-32.71-27.67-34.07,76.08-195.92,78.89-174.41Z"/>
</svg>